<svg xmlns="http://www.w3.org/2000/svg" height="800" width="1200" xml:space="preserve" y="0" x="0" id="Layer_1" version="1.1" viewBox="-59.1 -89.225 512.2 535.35"><style id="style7549" type="text/css">.st0{fill:#36393b}.st1{fill:#ff5a00}</style><g transform="translate(-103 -121.55)" id="Infobip_Logo_Vertical_RGB_1_"><g id="g7599"><g id="g7579"><path id="path7551" d="M175.07 391.69c-8.09 0-14.61 2.67-19.55 8.01l-2.66-6.56h-16.9v60.1h21.33v-32.23c0-7.08 4.31-11.79 10.75-11.92 5.3-.11 9.61 4.31 9.61 9.61v34.53h21.33v-38c0-6.92-2.17-12.51-6.64-16.88-4.48-4.48-10.15-6.66-17.27-6.66z" class="st0"/><g id="g7557"><path id="rect7553" class="st0" d="M103 366h21.33v21.33H103z"/><path id="rect7555" class="st0" d="M103 393.14h21.33v60.1H103z"/></g><g id="g7561"><path id="path7559" d="M489.13 400.54c-5.23-5.93-11.89-8.83-20.02-8.83-7.3 0-13.23 2.3-17.85 7.01l-2.68-5.58h-16.96v85.31h21.33v-29.49c4.75 3.76 10.07 5.71 16.16 5.71 8.13 0 14.79-2.93 20.02-8.73 5.2-5.96 7.87-13.48 7.87-22.7 0-9.35-2.68-16.87-7.87-22.7zm-25.35 37.69c-6.46 0-10.83-4.86-10.83-11.54v-6.33c0-6.81 4.38-11.66 10.83-11.66 6.93 0 11.92 6.07 11.92 14.83 0 8.63-4.99 14.7-11.92 14.7z" class="st0"/></g><g id="g7567"><path id="path7563" d="M409.53 365.27c-6.93 0-12.16 5.11-12.16 12.28 0 6.93 5.23 12.16 12.16 12.16 7.3 0 12.28-5.23 12.28-12.16.01-7.17-4.98-12.28-12.28-12.28z" class="st0"/><path id="rect7565" class="st0" d="M398.66 393.14h21.33v60.1h-21.33z"/></g><g id="g7571"><path id="path7569" d="M309.56 400.77c-6.33-5.94-14.61-8.85-24.67-8.85-10.1 0-18.25 2.91-24.7 8.85-6.46 5.98-9.62 13.52-9.62 22.75 0 9.24 3.16 16.78 9.62 22.75 6.46 5.82 14.61 8.76 24.7 8.76 10.07 0 18.34-2.94 24.67-8.76 6.46-5.98 9.62-13.52 9.62-22.75 0-9.36-3.17-16.9-9.62-22.75zm-24.67 37.72c-7.32 0-12.43-6.2-12.43-14.96 0-8.88 5.11-15.08 12.43-15.08 7.29 0 12.53 6.2 12.53 15.08-.01 8.76-5.25 14.96-12.53 14.96z" class="st0"/></g><path id="path7573" d="M242.23 383.29c1.94 0 4.24.24 7.03.73l2.66-15.81c-4.97-1.34-9.93-1.95-14.9-1.95-6.66 0-12.12 1.95-16.36 5.84-4.12 3.89-6.18 9-6.18 15.45v5.6h-10.66v16.48h10.66v43.62h21.33v-43.62h11.63v-16.48H235.8v-3.4c0-4.03 2.55-6.46 6.43-6.46z" class="st0"/><g id="g7577"><path id="path7575" d="M383.38 400.64c-5.19-5.92-11.87-8.82-19.99-8.82-6.18 0-11.49 1.91-16.11 5.67v-29.55h-21.33v85.31h16.97l2.67-5.57c4.58 4.71 10.54 7.04 17.79 7.04 8.12 0 14.8-2.93 19.99-8.72 5.22-5.95 7.89-13.47 7.89-22.67.01-9.35-2.66-16.86-7.88-22.69zm-26.23 37.59c-6.46 0-10.83-4.86-10.83-11.54v-6.33c0-6.81 4.38-11.66 10.83-11.66 6.9 0 11.89 6.07 11.89 14.83 0 8.63-4.99 14.7-11.89 14.7z" class="st0"/></g></g><g id="g7597"><g id="g7587"><path id="path7581" d="M319.17 206.77v26.69c0 3.08-2.48 5.56-5.53 5.56H286.9c-3.05 0-5.53-2.48-5.53-5.56v-26.69c0-3.08 2.48-5.56 5.53-5.56h26.74c3.05 0 5.53 2.47 5.53 5.56z" class="st1"/><path id="path7583" d="M346.09 173.64c-7.61-7.61-25.69-12.53-46.05-12.53-20.36 0-38.41 4.92-46.02 12.53-7.64 7.61-12.53 25.69-12.53 46.05 0 20.36 4.89 38.45 12.53 46.05 7.61 7.61 25.66 12.53 46.02 12.53 20.36 0 38.45-4.92 46.05-12.53 3.8-3.8 6.93-10.23 9.11-18.25 2.21-8.02 3.42-17.64 3.42-27.8-.01-20.35-4.93-38.44-12.53-46.05zm-17.8 74.12c-1.6 1.6-6.42 6.42-28.38 6.42-21.99 0-26.81-4.83-28.38-6.42-1.6-1.6-6.42-6.42-6.42-28.38s4.83-26.78 6.42-28.38c1.57-1.6 6.39-6.39 28.38-6.39 21.96 0 26.78 4.79 28.38 6.39 1.57 1.6 6.39 6.42 6.39 28.38s-4.83 26.78-6.39 28.38z" class="st1"/><path id="path7585" d="M319.17 206.77v26.69c0 3.08-2.48 5.56-5.53 5.56H286.9c-3.05 0-5.53-2.48-5.53-5.56v-26.69c0-3.08 2.48-5.56 5.53-5.56h26.74c3.05 0 5.53 2.47 5.53 5.56z" class="st1"/></g><path id="path7589" d="M319.17 206.77v26.69c0 3.08-2.48 5.56-5.53 5.56H286.9c-3.05 0-5.53-2.48-5.53-5.56v-26.69c0-3.08 2.48-5.56 5.53-5.56h26.74c3.05 0 5.53 2.47 5.53 5.56z" class="st1"/><path id="path7591" d="M319.17 206.77v26.69c0 3.08-2.48 5.56-5.53 5.56H286.9c-3.05 0-5.53-2.48-5.53-5.56v-26.69c0-3.08 2.48-5.56 5.53-5.56h26.74c3.05 0 5.53 2.47 5.53 5.56z" class="st1"/><path id="path7593" d="M346.09 173.64c-7.61-7.61-25.69-12.53-46.05-12.53-20.36 0-38.41 4.92-46.02 12.53-7.64 7.61-12.53 25.69-12.53 46.05 0 20.36 4.89 38.45 12.53 46.05 7.61 7.61 25.66 12.53 46.02 12.53 20.36 0 38.45-4.92 46.05-12.53 3.8-3.8 6.93-10.23 9.11-18.25 2.21-8.02 3.42-17.64 3.42-27.8-.01-20.35-4.93-38.44-12.53-46.05zm-17.8 74.12c-1.6 1.6-6.42 6.42-28.38 6.42-21.99 0-26.81-4.83-28.38-6.42-1.6-1.6-6.42-6.42-6.42-28.38s4.83-26.78 6.42-28.38c1.57-1.6 6.39-6.39 28.38-6.39 21.96 0 26.78 4.79 28.38 6.39 1.57 1.6 6.39 6.42 6.39 28.38s-4.83 26.78-6.39 28.38z" class="st1"/><path id="path7595" d="M300.04 121.55c-54.2 0-98.14 43.94-98.14 98.14 0 53.75 43.21 97.41 96.8 98.14 54.9.73 100.22-44.61 99.49-99.52-.75-53.55-44.4-96.76-98.15-96.76zm56.27 154.65c-10.74 10.74-31.73 17.13-56.18 17.13s-45.48-6.39-56.18-17.13c-10.74-10.74-17.16-31.73-17.16-56.18s6.42-45.44 17.16-56.18c10.71-10.74 31.73-17.16 56.18-17.16s45.45 6.42 56.18 17.16c10.71 10.74 17.13 31.73 17.13 56.18 0 24.44-6.42 45.44-17.13 56.18z" class="st1"/></g></g></g></svg>